<svg width="25" height="25" viewBox="0 0 25 25" fill="none" xmlns="http://www.w3.org/2000/svg">
<path d="M19.1221 13.2588C19.1561 16.9307 22.3436 18.1527 22.3787 18.1684C22.3518 18.2543 21.8695 19.9098 20.6996 21.6193C19.6883 23.0975 18.6385 24.5701 16.9852 24.601C15.3605 24.6307 14.8381 23.6373 12.9805 23.6373C11.1234 23.6373 10.5432 24.5701 9.00508 24.6307C7.40899 24.6912 6.19356 23.032 5.17383 21.5596C3.09024 18.5471 1.49786 13.0469 3.63594 9.33418C4.69805 7.49043 6.59649 6.32305 8.65684 6.29297C10.224 6.26309 11.7033 7.34727 12.6613 7.34727C13.6188 7.34727 15.4164 6.04336 17.3063 6.23477C18.0975 6.26778 20.3182 6.5543 21.7441 8.6418C21.6295 8.71309 19.0945 10.1889 19.1221 13.2588ZM16.0688 4.24199C16.916 3.21641 17.4863 1.78828 17.3309 0.367775C16.1094 0.416798 14.6324 1.18164 13.7564 2.20684C12.9713 3.11445 12.2838 4.56758 12.4691 5.95996C13.8307 6.06543 15.2213 5.26817 16.0688 4.24199Z" fill="black"/>
</svg>
