<svg width="25" height="25" viewBox="0 0 25 25" fill="none" xmlns="http://www.w3.org/2000/svg">
<g clip-path="url(#clip0_69_247)">
<path d="M22.7832 0.943359H2.21875C1.51437 0.943359 0.943359 1.51437 0.943359 2.21875V22.7832C0.943359 23.4876 1.51437 24.0586 2.21875 24.0586H22.7832C23.4876 24.0586 24.0586 23.4876 24.0586 22.7832V2.21875C24.0586 1.51437 23.4876 0.943359 22.7832 0.943359Z" fill="white"/>
<path d="M16.8906 24.0566V15.1055H19.8945L20.3438 11.6172H16.8906V9.39063C16.8906 8.38086 17.1719 7.69141 18.6191 7.69141H20.4668V4.56641C19.5721 4.47316 18.673 4.42882 17.7734 4.43359C15.1133 4.43359 13.2813 6.05469 13.2813 9.04492V11.6172H10.2773V15.1055H13.2813V24.0566H16.8906Z" fill="#3D5A98"/>
</g>
<defs>
<clipPath id="clip0_69_247">
<rect width="25" height="25" fill="white"/>
</clipPath>
</defs>
</svg>
