<svg width="288" height="288" viewBox="0 0 288 288" fill="none" xmlns="http://www.w3.org/2000/svg">
<g clip-path="url(#clip0_55_16)">
<path d="M179.28 62.28C183.816 57.0513 187.276 50.978 189.458 44.4088C191.641 37.8396 192.505 30.9039 192 24C178.072 25.1242 165.144 31.6747 156 42.24C151.621 47.3037 148.303 53.1946 146.242 59.5637C144.18 65.9329 143.418 72.6509 144 79.32C150.794 79.3766 157.509 77.8691 163.627 74.9143C169.745 71.9595 175.101 67.6365 179.28 62.28ZM209.52 151.56C209.6 142.365 212.022 133.342 216.558 125.342C221.093 117.343 227.591 110.631 235.44 105.84C230.487 98.7029 223.938 92.818 216.315 88.6521C208.691 84.4862 200.202 82.1538 191.52 81.84C172.8 79.92 155.52 92.76 145.56 92.76C135.6 92.76 121.56 82.08 105.96 82.32C95.7615 82.6559 85.8242 85.6294 77.1173 90.9502C68.4104 96.2711 61.2312 103.758 56.2799 112.68C35.1599 149.4 50.8799 204 71.9999 233.64C81.5999 248.16 93.5999 264.6 109.44 264C125.28 263.4 130.44 254.16 148.8 254.16C167.16 254.16 172.8 264 188.4 263.64C204 263.28 215.04 248.76 225.12 234.24C232.26 223.698 237.838 212.179 241.68 200.04C232.17 195.984 224.056 189.231 218.34 180.616C212.625 172 209.559 161.899 209.52 151.56Z" fill="white"/>
</g>
<defs>
<clipPath id="clip0_55_16">
<rect width="288" height="288" fill="white"/>
</clipPath>
</defs>
</svg>
