<svg width="288" height="288" viewBox="0 0 288 288" fill="none" xmlns="http://www.w3.org/2000/svg">
<g clip-path="url(#clip0_55_48)">
<path d="M144 126.321H260.518C261.803 133.5 262.446 140.357 262.446 146.893C262.446 170.143 257.571 190.902 247.821 209.17C238.071 227.437 224.17 241.714 206.116 252C188.062 262.286 167.357 267.429 144 267.429C127.178 267.429 111.161 264.187 95.9463 257.705C80.732 251.223 67.607 242.464 56.5713 231.429C45.5356 220.393 36.7766 207.268 30.2945 192.054C23.8124 176.839 20.5713 160.821 20.5713 144C20.5713 127.179 23.8124 111.161 30.2945 95.9464C36.7766 80.7321 45.5356 67.6071 56.5713 56.5714C67.607 45.5357 80.732 36.7768 95.9463 30.2946C111.161 23.8125 127.178 20.5714 144 20.5714C176.143 20.5714 203.732 31.3393 226.768 52.875L193.178 85.1786C180 72.4286 163.607 66.0536 144 66.0536C130.178 66.0536 117.402 69.5357 105.67 76.5C93.9374 83.4643 84.6427 92.9196 77.7856 104.866C70.9284 116.813 67.4999 129.857 67.4999 144C67.4999 158.143 70.9284 171.187 77.7856 183.134C84.6427 195.08 93.9374 204.536 105.67 211.5C117.402 218.464 130.178 221.946 144 221.946C153.321 221.946 161.893 220.661 169.714 218.089C177.536 215.518 183.964 212.304 189 208.446C194.036 204.589 198.428 200.196 202.178 195.268C205.928 190.339 208.687 185.679 210.455 181.286C212.223 176.893 213.428 172.714 214.071 168.75H144V126.321Z" fill="white"/>
</g>
<defs>
<clipPath id="clip0_55_48">
<rect width="288" height="288" fill="white"/>
</clipPath>
</defs>
</svg>
