<svg width="288" height="288" viewBox="0 0 288 288" fill="none" xmlns="http://www.w3.org/2000/svg">
<g clip-path="url(#clip0_55_52)">
<path d="M35.7602 150.336C57.6242 171.72 110.544 198.6 122.964 204.696C122.964 204.696 123.684 205.056 124.164 204.576L124.404 204.096V203.616C90.4802 129.672 44.4842 74.004 44.4842 74.004C44.4842 74.004 22.3802 95.148 21.1802 117.48V121.656C22.1402 139.704 35.7602 150.336 35.7602 150.336ZM108.876 38.76C91.6922 43.248 79.0682 58.236 78.1682 76.296V76.392V81.288C78.5282 88.452 80.0762 93.828 80.0762 93.828C87.9602 128.472 126.192 185.22 134.436 197.16C135.036 197.76 135.636 197.52 135.636 197.52C136.068 197.328 136.356 196.908 136.356 196.416C136.356 196.38 136.356 196.344 136.356 196.308C149.004 69.684 123.084 36 123.084 36C119.268 36.24 108.876 38.76 108.876 38.76Z" fill="white"/>
<path d="M172.428 223.8C180.792 229.896 206.472 247.692 218.784 251.28C218.784 251.28 220.692 251.88 223.92 252H225.6C233.844 251.76 248.292 247.584 261.444 225L173.136 222.012C173.1 222.012 172.32 222.024 172.08 222.6C172.08 222.6 171.948 223.452 172.428 223.8ZM33.372 211.74C41.736 215.328 50.1 215.448 50.1 215.448C51.528 215.688 102.66 215.448 116.28 215.448C116.88 215.448 117.24 214.848 117.24 214.848V214.128C117.24 213.768 116.88 213.528 116.88 213.528C78.18 187.368 3.15595 147.348 3.15595 147.348C1.36795 152.844 0.767949 158.1 0.647949 162.876V163.716C0.647949 176.496 5.42395 185.46 5.42395 185.46C14.976 205.644 33.372 211.74 33.372 211.74ZM164.064 204.576L164.544 204.696H165.264C177.924 198.36 230.484 171.612 252.228 150.456C252.228 150.456 265.968 139.344 266.688 121.548C268.356 96.936 243.516 74.124 243.516 74.004C243.516 74.004 197.52 129.672 163.836 203.028C163.836 203.028 163.464 203.976 164.064 204.576ZM178.872 38.64C178.872 38.64 172.068 36.972 164.892 36.012C164.892 36.012 138.852 69.576 151.512 196.452C151.632 197.292 152.232 197.412 152.232 197.412C153.072 197.772 153.432 197.052 153.432 197.052C162.036 184.752 200.016 128.244 207.792 93.84C207.792 93.84 212.088 77.112 208.032 65.88C208.032 65.88 202.164 44.376 178.872 38.64ZM69.084 251.28C80.556 248.292 106.836 230.016 115.44 223.8C116.16 223.2 115.92 222.72 115.92 222.72V222.84C115.68 221.88 114.72 221.88 114.72 221.88L26.556 225C36.12 242.088 52.248 255.228 69.084 251.28ZM284.844 147.108C284.844 147.108 209.82 187.368 171.12 213.408C171.12 213.408 170.52 213.888 170.76 214.716C170.76 214.716 171.12 215.436 171.6 215.436C185.46 215.436 238.02 215.436 239.34 215.196C239.34 215.196 246.156 214.956 254.508 211.728C254.508 211.728 273.144 205.752 282.816 184.608C282.816 184.608 291.528 167.304 284.844 147.108Z" fill="white"/>
</g>
<defs>
<clipPath id="clip0_55_52">
<rect width="288" height="288" fill="white"/>
</clipPath>
</defs>
</svg>
