<svg width="288" height="288" viewBox="0 0 288 288" fill="none" xmlns="http://www.w3.org/2000/svg">
<g clip-path="url(#clip0_55_34)">
<path d="M144 252C203.647 252 252 203.647 252 144C252 84.3532 203.647 36 144 36C84.3532 36 36 84.3532 36 144C36 203.647 84.3532 252 144 252Z" fill="white"/>
<path d="M148.392 183.024V96.552H139.608V191.448H169.776V183.024H148.392Z" fill="black"/>
<path d="M109.296 122.4C116.454 122.4 122.256 116.598 122.256 109.44C122.256 102.282 116.454 96.48 109.296 96.48C102.138 96.48 96.3359 102.282 96.3359 109.44C96.3359 116.598 102.138 122.4 109.296 122.4Z" fill="black"/>
<path d="M234.792 144.432V139.824H169.992V148.248H225.936C225.064 164.217 219.533 179.581 210.028 192.442C200.522 205.303 187.457 215.098 172.447 220.618C157.437 226.137 141.139 227.139 125.566 223.5C109.992 219.861 95.8263 211.74 84.8166 200.14C73.8069 188.54 66.436 173.97 63.6142 158.228C60.7925 142.486 62.6434 126.262 68.9384 111.561C75.2334 96.8589 85.6969 84.323 99.0364 75.5012C112.376 66.6793 128.007 61.9579 144 61.92H148.032V53.496H144C126.096 53.5246 108.602 58.8545 93.7232 68.8133C78.8446 78.7722 67.2484 92.914 60.397 109.455C53.5456 125.996 51.7459 144.196 55.225 161.758C58.704 179.321 67.306 195.46 79.9459 208.14C92.5858 220.82 108.698 229.473 126.249 233.008C143.801 236.542 162.006 234.8 178.569 228.001C195.131 221.202 209.31 209.651 219.316 194.804C229.321 179.957 234.707 162.48 234.792 144.576V144.432Z" fill="black"/>
</g>
<defs>
<clipPath id="clip0_55_34">
<rect width="288" height="288" fill="white"/>
</clipPath>
</defs>
</svg>
