<svg width="288" height="288" viewBox="0 0 288 288" fill="none" xmlns="http://www.w3.org/2000/svg">
<g clip-path="url(#clip0_57_58)">
<path d="M107.376 172.896L107.388 172.908L107.376 172.896Z" fill="white"/>
<path d="M107.376 217.452V202.488C49.296 195.228 29.472 130.692 29.472 130.692C29.472 130.692 55.44 92.028 107.472 87.96V73.86C49.836 78.564 0 127.704 0 127.704C0 127.704 28.2 209.976 107.376 217.452Z" fill="white"/>
<path d="M51.3 132.636C51.3 132.636 63.492 178.668 107.376 186.576V172.896C82.68 164.448 74.52 135.288 74.52 135.288C74.52 135.288 88.944 117.984 107.28 120.228H107.376V105.276C109.992 104.988 112.632 104.82 115.32 104.82C115.884 104.82 116.448 104.832 116.928 104.844C147.024 104.844 164.928 128.46 164.928 128.46L140.448 149.196C129.528 130.716 125.82 122.592 107.484 120.348V172.908C111.936 174.396 116.604 175.152 121.38 175.152C157.092 175.152 190.38 128.568 190.38 128.568C190.38 128.568 159.528 86.256 112.464 87.756H112.416C110.628 87.78 108.864 87.852 107.376 87.972V105.276L107.052 105.3C107.148 105.288 107.244 105.3 107.328 105.288C72.372 109.14 51.3 132.636 51.3 132.636Z" fill="white"/>
<path d="M288 48H107.376V73.86L112.464 73.536C177.864 71.304 220.584 127.608 220.584 127.608C220.584 127.608 171.624 187.644 120.624 187.644C116.184 187.644 111.828 187.224 107.484 186.468V202.488C111.084 202.908 114.804 203.244 118.404 203.244C165.888 203.244 200.244 178.776 233.52 149.928C239.028 154.416 261.6 165.204 266.28 169.908C234.684 196.62 161.016 218.1 119.244 218.1C115.224 218.1 111.408 217.884 107.592 217.464V240H288V48Z" fill="white"/>
</g>
<defs>
<clipPath id="clip0_57_58">
<rect width="288" height="288" fill="white"/>
</clipPath>
</defs>
</svg>
