<svg width="288" height="288" viewBox="0 0 288 288" fill="none" xmlns="http://www.w3.org/2000/svg">
<g clip-path="url(#clip0_55_6)">
<g clip-path="url(#clip1_55_6)">
<path fill-rule="evenodd" clip-rule="evenodd" d="M71.3785 146.22C71.3785 139.362 70.5552 133.927 56.9468 133.927C45.5885 133.927 41.7935 138.009 41.8742 144.735H52.0431C52.3166 142.265 54.6429 141.172 56.2326 141.172C57.4399 141.172 59.9619 141.447 59.9634 143.531C59.9694 149.779 40.3128 144.013 40.3128 157.305C40.3128 163.286 46.5179 165.713 49.7586 165.632C54.0363 165.527 57.3293 164.755 60.5671 161.737L61.8102 164.81H71.8984C71.4203 163.712 71.3785 146.22 71.3785 146.22ZM54.6862 159.068C52.4376 159.068 51.4679 157.534 51.4828 156.107C51.5097 153.667 56.5598 153.755 60.2907 151.944C60.5671 155.892 58.692 159.068 54.6862 159.068ZM272.845 152.747C272.515 154.995 271.363 157.788 268.4 157.788C264.808 157.788 262.844 154.291 262.844 149.957C262.844 146.556 264.12 141.992 268.4 141.992C269.664 141.992 270.65 142.376 271.362 143.144C272.077 143.858 272.514 144.844 272.57 146.107H283.543C282.72 137.602 276.081 134.309 268.4 134.309C258.907 134.309 251.874 139.958 251.874 149.779C251.874 159.491 259.126 165.467 268.4 165.467C276.355 165.467 282.775 161.469 283.764 152.745L272.845 152.747ZM239.662 164.834H250.681V135.289H239.662V164.834ZM239.662 130.77H250.681V123.223H239.662V130.77ZM187.842 134.006C178.13 134.006 171.447 139.833 171.447 149.82C171.447 159.642 178.679 165.467 187.897 165.467C197.116 165.467 204.356 159.794 204.356 149.259C204.355 140.317 197.991 134.006 187.842 134.006ZM187.897 157.786C184.988 157.786 182.738 154.665 182.738 149.232C182.738 145.996 184.113 141.99 188.005 141.99C190.969 141.826 193.062 145.236 193.062 149.461C193.062 154.895 190.969 157.786 187.897 157.786ZM151.469 142.455C151.496 141.028 153.045 140.366 155.021 140.366C155.899 140.366 157.133 140.584 157.737 141.081C158.028 141.318 158.717 142.168 158.834 143.166H169.204C168.922 135.491 161.395 133.889 154.668 133.889C148.689 133.889 140.93 136.253 140.916 143.606C140.897 155.668 159.348 151.264 159.348 155.872C159.348 157.904 157.827 158.668 155.104 158.668C154.005 158.668 152.823 157.927 152.11 157.378C151.339 156.775 151.024 156.069 150.901 154.743H140.655C140.855 162.795 148.202 165.796 154.786 165.796C166.996 165.796 170.518 160.488 170.562 154.507C170.645 142.974 151.393 146.597 151.469 142.455ZM138.977 146.22C138.977 139.362 138.154 133.927 124.545 133.927C113.187 133.927 109.392 138.009 109.472 144.735H119.641C119.916 142.265 122.241 141.172 123.834 141.172C125.041 141.172 127.562 141.447 127.565 143.531C127.569 149.779 107.913 144.013 107.913 157.305C107.913 163.286 114.118 165.713 117.358 165.632C121.636 165.527 124.932 164.755 128.168 161.737L129.411 164.81H139.5C139.017 163.712 138.977 146.22 138.977 146.22ZM122.283 159.068C120.034 159.068 119.065 157.534 119.08 156.107C119.107 153.667 124.158 153.755 127.889 151.944C128.162 155.892 126.289 159.068 122.283 159.068ZM23.8133 122.205H4.23438V164.803H16.8791V151.59H24.2511C35.6093 151.59 41.1465 145.485 41.1465 136.981C41.148 128.86 35.1716 122.205 23.8133 122.205ZM23.2306 142.222H16.8806V132.613H21.5303C24.272 132.613 28.4421 133.359 28.4421 137.034C28.4436 140.437 26.2487 142.222 23.2306 142.222ZM226.543 134.004C222.21 134.004 220.379 134.725 216.347 138.408L216.377 135.138L205.921 135.129V164.829H216.377V149.232C216.377 145.555 218.268 143.307 221.781 143.307C225.017 143.307 225.788 145.004 225.788 147.858V164.831H237.199V146.654C237.197 138.753 234.115 134.004 226.543 134.004ZM95.374 134.004C91.0396 134.004 89.2093 134.725 85.1782 138.408L85.2051 135.138L74.7522 135.129V164.829H85.7653V149.232C85.7653 145.555 87.2176 142.893 90.7303 142.893C93.9666 142.893 94.6165 145.004 94.6165 147.858V164.831H106.03V146.654C106.027 138.753 102.945 134.004 95.374 134.004Z" fill="white"/>
</g>
</g>
<defs>
<clipPath id="clip0_55_6">
<rect width="288" height="288" fill="white"/>
</clipPath>
<clipPath id="clip1_55_6">
<rect width="288" height="288" fill="white"/>
</clipPath>
</defs>
</svg>
