<svg width="288" height="288" viewBox="0 0 288 288" fill="none" xmlns="http://www.w3.org/2000/svg">
<g clip-path="url(#clip0_55_27)">
<path d="M150.996 182.792C226.661 169.273 284.868 140.783 281.004 119.157C277.14 97.5311 212.669 90.9593 137.004 104.478C61.3388 117.997 3.13224 146.487 6.99605 168.113C10.8599 189.739 75.3309 196.311 150.996 182.792Z" fill="white"/>
<path d="M59.4551 148.934C59.6339 149.592 59.6339 150.287 59.4551 150.945C59.236 151.571 58.811 152.103 58.2496 152.456C57.6883 152.808 57.0239 152.96 56.3652 152.886C55.7066 152.811 55.0927 152.515 54.6241 152.047C54.1555 151.578 53.8599 150.964 53.7858 150.305V147.562H46.2876V149.757C46.2876 156.066 51.2254 157.986 56.6204 157.986C62.0155 157.986 65.7646 156.249 66.5875 151.494C66.8369 149.949 66.8369 148.375 66.5875 146.83C65.3988 140.978 54.6087 139.149 53.7858 135.857C53.6942 135.374 53.6942 134.878 53.7858 134.394C53.8763 133.803 54.1952 133.271 54.6739 132.911C55.1526 132.552 55.7529 132.395 56.3461 132.474C56.6966 132.432 57.0519 132.469 57.3865 132.581C57.721 132.694 58.0263 132.879 58.2802 133.124C58.5341 133.37 58.7303 133.668 58.8544 133.999C58.9785 134.329 59.0276 134.683 58.9979 135.034V136.772H66.0389V134.486C66.0389 128.359 60.5524 127.353 56.8948 127.353C53.2371 127.353 47.7507 128.999 47.0191 133.663C46.7473 134.929 46.7473 136.238 47.0191 137.503C48.2993 143.264 58.3578 144.91 59.8209 148.659M76.6461 128.542L71.3425 156.889H79.0235L82.8641 131.194L86.6132 156.889H94.2942L89.1735 128.542H76.6461ZM119.441 128.542L115.966 150.214L112.491 128.542H100.695L100.146 156.889H107.462V131.377L112.217 156.889H119.349L124.104 131.377V156.889H131.145L130.505 128.542H119.441Z" fill="black"/>
<path d="M151.537 148.842C151.719 149.531 151.719 150.256 151.537 150.945C151.386 151.541 151.026 152.063 150.522 152.416C150.019 152.769 149.405 152.928 148.793 152.866C148.432 152.92 148.063 152.894 147.713 152.788C147.363 152.683 147.041 152.501 146.77 152.256C146.499 152.012 146.285 151.709 146.145 151.372C146.005 151.035 145.941 150.67 145.959 150.305V147.562H138.278V149.665C138.278 156.066 143.307 157.895 148.61 157.895C153.914 157.895 157.755 156.157 158.669 151.494C158.943 149.951 158.943 148.373 158.669 146.83C157.48 140.887 146.782 139.149 145.959 135.766C145.867 135.283 145.867 134.786 145.959 134.303C146.049 133.711 146.368 133.179 146.847 132.82C147.325 132.461 147.926 132.304 148.519 132.383C148.866 132.357 149.215 132.404 149.542 132.522C149.87 132.641 150.168 132.827 150.419 133.069C150.669 133.31 150.866 133.602 150.995 133.925C151.125 134.248 151.185 134.595 151.171 134.943V136.772H158.212V134.486C158.212 128.268 152.634 127.353 149.068 127.353C145.501 127.353 139.924 128.999 139.101 133.571C138.873 134.841 138.873 136.142 139.101 137.412C140.289 143.264 150.348 144.91 151.811 148.568" fill="black"/>
<path d="M175.311 152.774C175.953 152.852 176.599 152.676 177.112 152.283C177.625 151.889 177.963 151.311 178.054 150.671C178.103 150.307 178.103 149.938 178.054 149.574V128.542H185.187V150.762C184.638 155.975 180.432 157.712 175.22 157.712C170.007 157.712 166.076 155.975 165.344 150.762V128.542H172.476V149.482C172.427 149.846 172.427 150.215 172.476 150.579C172.567 151.202 172.892 151.766 173.385 152.157C173.878 152.548 174.501 152.736 175.128 152.683M209.784 128.542L210.242 150.762L203.749 128.542H193.234V156.615H200.183V133.571L207.224 156.615H217.191V128.542H209.784ZM234.474 152.774C235.112 152.857 235.759 152.696 236.285 152.323C236.81 151.95 237.176 151.393 237.308 150.762C237.353 150.398 237.353 150.029 237.308 149.665V145.55H234.382V141.435H244.624V149.025C244.661 149.634 244.661 150.245 244.624 150.854C244.166 156.066 239.686 157.895 234.656 157.895C229.627 157.895 225.512 156.066 224.689 150.854C224.652 150.245 224.652 149.634 224.689 149.025V135.217C225.329 129.914 229.627 128.268 234.656 128.268C239.686 128.268 243.801 129.914 244.624 135.217V138.052H237.308V136.498C237.341 136.132 237.341 135.765 237.308 135.4C237.196 134.753 236.839 134.174 236.311 133.782C235.784 133.391 235.126 133.217 234.474 133.297C233.832 133.219 233.185 133.395 232.672 133.788C232.16 134.182 231.821 134.76 231.73 135.4C231.679 135.825 231.679 136.255 231.73 136.68V149.665C231.685 150.029 231.685 150.398 231.73 150.762C231.883 151.4 232.267 151.959 232.807 152.33C233.347 152.702 234.006 152.86 234.656 152.774" fill="black"/>
</g>
<defs>
<clipPath id="clip0_55_27">
<rect width="288" height="288" fill="white"/>
</clipPath>
</defs>
</svg>
