<svg width="288" height="288" viewBox="0 0 288 288" fill="none" xmlns="http://www.w3.org/2000/svg">
<g clip-path="url(#clip0_55_41)">
<g clip-path="url(#clip1_55_41)">
<path fill-rule="evenodd" clip-rule="evenodd" d="M279.469 159.047C278.903 159.036 278.341 159.138 277.814 159.348C277.288 159.557 276.809 159.869 276.405 160.266C276 160.663 275.679 161.136 275.46 161.658C275.241 162.18 275.128 162.741 275.128 163.307C275.128 163.874 275.241 164.434 275.46 164.957C275.679 165.479 276 165.952 276.405 166.349C276.809 166.746 277.288 167.058 277.814 167.267C278.341 167.476 278.903 167.579 279.469 167.568C280.029 167.568 280.583 167.457 281.1 167.242C281.617 167.026 282.086 166.712 282.48 166.315C282.875 165.918 283.188 165.447 283.4 164.93C283.613 164.412 283.721 163.857 283.719 163.298C283.719 162.74 283.609 162.187 283.396 161.671C283.182 161.155 282.869 160.687 282.475 160.292C282.08 159.897 281.612 159.584 281.096 159.37C280.58 159.157 280.028 159.047 279.469 159.047ZM279.469 167.056C278.976 167.056 278.488 166.959 278.032 166.771C277.577 166.582 277.163 166.305 276.815 165.956C276.466 165.606 276.191 165.192 276.003 164.736C275.816 164.28 275.72 163.791 275.722 163.298C275.722 162.806 275.819 162.319 276.008 161.865C276.196 161.411 276.473 160.999 276.821 160.652C277.169 160.305 277.582 160.03 278.036 159.843C278.491 159.655 278.978 159.56 279.469 159.561C279.96 159.561 280.446 159.657 280.899 159.845C281.353 160.033 281.765 160.308 282.111 160.655C282.458 161.002 282.733 161.414 282.921 161.868C283.109 162.321 283.205 162.807 283.205 163.298C283.207 163.79 283.112 164.278 282.926 164.733C282.739 165.189 282.465 165.603 282.118 165.952C281.77 166.301 281.358 166.579 280.903 166.768C280.449 166.957 279.962 167.055 279.469 167.056Z" fill="white"/>
<path fill-rule="evenodd" clip-rule="evenodd" d="M281.656 162.182C281.656 161.78 281.478 161.357 281.122 161.155C280.764 160.943 280.363 160.922 279.961 160.922H277.886V165.684H278.467V163.487H279.538L280.898 165.684H281.59L280.151 163.487C281 163.464 281.656 163.118 281.656 162.182ZM279.359 163.029H278.465V161.345H279.825C280.417 161.345 281.065 161.434 281.065 162.171C281.067 163.141 280.027 163.029 279.359 163.029ZM254.494 139.159L263.205 129.857C263.71 129.174 263.961 128.696 263.961 128.287C263.961 127.604 263.374 127.331 261.527 127.331H259.329V121.458H283.12V127.331H279.994C276.384 127.331 275.713 127.876 270.676 134.226L256.895 149.109V158.191C256.895 160.514 258.068 161.331 261.427 161.331H266.63V166.997H233.307V161.331H238.51C241.866 161.331 243.042 160.514 243.042 158.191V149.109L226.811 131.153C224.129 128.013 224.499 127.331 217.031 127.331V121.458H247.166V127.331H245.021C242.838 127.331 241.913 127.74 241.913 128.559C241.913 129.243 242.584 129.789 243.003 130.334L251.216 139.284C252.191 140.299 253.382 140.43 254.494 139.159ZM52.3018 121.457H59.5712V137.842H52.8577C52.263 134.567 50.2129 133.292 48.3437 131.574C44.9712 128.475 37.6675 125.895 31.5249 125.895C23.5966 125.895 16.9055 128.354 16.9055 131.97C16.9055 142.008 62.2473 134.02 62.2473 153C62.2473 162.899 52.5349 168.429 35.093 168.429C29.0549 168.429 19.9178 166.555 14.5267 163.692C12.8368 162.716 12.1195 164.616 11.8028 166.996H4.34966V150.063H11.0915C12.5783 154.365 14.6268 155.251 16.511 156.959C19.7804 159.964 27.5622 162.15 34.6986 162.08C45.4584 161.974 49.158 159.622 49.158 156.208C49.158 152.795 45.4987 151.975 33.7079 150.132L23.6967 148.493C12.399 146.785 4.17334 144.26 4.17334 135.248C4.17334 125.895 14.579 120.022 31.0318 120.022C37.9649 120.022 43.7654 120.949 49.3328 124.096C50.8749 125.098 52.3213 125.218 52.3018 121.457ZM194.168 148.891L194.312 130.679C194.312 128.29 193.068 127.471 189.517 127.471H185.343V121.805H211.895V127.471H208.435C204.88 127.471 203.637 128.291 203.637 130.679V167.343L193.245 167.26L159.589 135.39V158.536C159.589 160.858 160.832 161.744 164.384 161.744H169.004V167.343H141.428V161.744H145.998C149.55 161.744 150.793 160.856 150.793 158.536V130.679C150.793 128.29 149.55 127.471 145.998 127.471H141.428V121.805H165.27L194.168 148.891ZM105.228 119.679C84.0673 119.679 70.8211 129.034 70.8211 144.052C70.8211 158.802 83.8835 168.085 104.583 168.085C126.569 168.085 139.357 158.938 139.357 143.302C139.359 129.239 125.558 119.679 105.228 119.679ZM104.747 162.147C93.034 162.147 86.3011 155.387 86.3011 143.712C86.3011 132.311 93.3269 125.551 105.333 125.551C116.85 125.551 123.583 132.448 123.583 144.191C123.583 155.661 116.752 162.147 104.747 162.147Z" fill="white"/>
</g>
</g>
<defs>
<clipPath id="clip0_55_41">
<rect width="288" height="288" fill="white"/>
</clipPath>
<clipPath id="clip1_55_41">
<rect width="288" height="288" fill="white"/>
</clipPath>
</defs>
</svg>
