<svg id="visual" viewBox="0 0 900 600" width="900" height="600" xmlns="http://www.w3.org/2000/svg" xmlns:xlink="http://www.w3.org/1999/xlink" version="1.1"><rect x="0" y="0" width="900" height="600" fill="#efefef"></rect><path d="M0 523L21.5 502C43 481 86 439 128.8 438.3C171.7 437.7 214.3 478.3 257.2 483C300 487.7 343 456.3 385.8 435.2C428.7 414 471.3 403 514.2 406C557 409 600 426 642.8 424.5C685.7 423 728.3 403 771.2 406C814 409 857 435 878.5 448L900 461L900 601L878.5 601C857 601 814 601 771.2 601C728.3 601 685.7 601 642.8 601C600 601 557 601 514.2 601C471.3 601 428.7 601 385.8 601C343 601 300 601 257.2 601C214.3 601 171.7 601 128.8 601C86 601 43 601 21.5 601L0 601Z" fill="#5a49e3" stroke-linecap="round" stroke-linejoin="miter"></path></svg>