<svg width="200" height="203" viewBox="0 0 200 203" fill="none" xmlns="http://www.w3.org/2000/svg">
<path d="M121.027 164.04C111.669 164.04 103.177 162.307 95.5522 158.841C87.927 155.259 81.3416 150.522 75.796 144.63C70.3659 138.622 66.149 131.922 63.1451 124.527C60.2568 117.018 58.8126 109.277 58.8126 101.305C58.8126 93.1023 60.3723 85.3038 63.4917 77.9097C66.6111 70.5156 70.9436 63.9302 76.4892 58.1535C82.1503 52.2613 88.7935 47.64 96.4187 44.2895C104.159 40.939 112.593 39.2638 121.721 39.2638C131.079 39.2638 139.57 41.0546 147.196 44.6361C154.821 48.1021 161.348 52.839 166.779 58.8467C172.209 64.8544 176.368 71.6131 179.256 79.1228C182.26 86.5169 183.762 94.1421 183.762 101.998C183.762 110.086 182.202 117.826 179.083 125.221C176.079 132.615 171.746 139.258 166.085 145.15C160.54 150.927 153.954 155.548 146.329 159.014C138.704 162.365 130.27 164.04 121.027 164.04ZM93.126 101.652C93.126 105.811 93.7037 109.855 94.859 113.783C96.0143 117.595 97.7473 121.061 100.058 124.181C102.369 127.185 105.257 129.611 108.723 131.459C112.305 133.192 116.522 134.059 121.374 134.059C126.226 134.059 130.443 133.135 134.025 131.286C137.606 129.438 140.495 126.954 142.69 123.834C145 120.599 146.676 117.075 147.716 113.263C148.871 109.335 149.449 105.349 149.449 101.305C149.449 97.146 148.871 93.1601 147.716 89.3475C146.56 85.5349 144.827 82.1267 142.517 79.1228C140.206 76.0034 137.26 73.5772 133.678 71.8442C130.097 70.1112 125.937 69.2447 121.201 69.2447C116.348 69.2447 112.131 70.169 108.55 72.0175C105.084 73.866 102.195 76.35 99.8847 79.4694C97.574 82.4733 95.841 85.9393 94.6857 89.8674C93.6459 93.68 93.126 97.6081 93.126 101.652Z" fill="#5A49E3"/>
<path d="M95.5522 158.841L94.7019 160.651L94.7132 160.656L94.7246 160.662L95.5522 158.841ZM75.796 144.63L74.3123 145.971L74.3258 145.986L74.3396 146.001L75.796 144.63ZM63.1451 124.527L61.2784 125.245L61.2851 125.263L61.2922 125.28L63.1451 124.527ZM63.4917 77.9097L61.649 77.1323L61.649 77.1323L63.4917 77.9097ZM76.4892 58.1535L75.047 56.7678L75.0464 56.7684L76.4892 58.1535ZM96.4187 44.2895L95.6242 42.454L95.6142 42.4584L96.4187 44.2895ZM147.196 44.6361L146.345 46.4464L146.357 46.4517L146.368 46.4568L147.196 44.6361ZM166.779 58.8467L165.295 60.1878L165.295 60.1878L166.779 58.8467ZM179.256 79.1228L177.389 79.8408L177.396 79.8582L177.403 79.8755L179.256 79.1228ZM179.083 125.221L177.24 124.443L177.235 124.455L177.23 124.468L179.083 125.221ZM166.085 145.15L164.643 143.764L164.643 143.765L166.085 145.15ZM146.329 159.014L147.134 160.845L147.145 160.84L147.157 160.835L146.329 159.014ZM94.859 113.783L92.9403 114.347L92.9426 114.355L92.945 114.363L94.859 113.783ZM100.058 124.181L98.4509 125.371L98.4617 125.386L98.4728 125.4L100.058 124.181ZM108.723 131.459L107.782 133.224L107.817 133.243L107.852 133.26L108.723 131.459ZM134.025 131.286L134.942 133.063L134.942 133.063L134.025 131.286ZM142.69 123.834L141.062 122.672L141.054 122.683L142.69 123.834ZM147.716 113.263L145.797 112.699L145.791 112.718L145.786 112.737L147.716 113.263ZM147.716 89.3475L145.801 89.9275L145.801 89.9275L147.716 89.3475ZM142.517 79.1228L140.909 80.3132L140.92 80.3278L140.931 80.3422L142.517 79.1228ZM133.678 71.8442L134.549 70.0439L134.549 70.0439L133.678 71.8442ZM108.55 72.0175L107.632 70.2403L107.62 70.2464L107.609 70.2528L108.55 72.0175ZM99.8847 79.4694L101.47 80.6888L101.481 80.6744L101.492 80.6599L99.8847 79.4694ZM94.6857 89.8674L92.767 89.3031L92.7614 89.3221L92.7562 89.3412L94.6857 89.8674ZM121.027 162.04C111.921 162.04 103.716 160.355 96.3798 157.02L94.7246 160.662C102.639 164.259 111.417 166.04 121.027 166.04V162.04ZM96.4025 157.031C88.9957 153.552 82.6184 148.961 77.2524 143.259L74.3396 146.001C80.0649 152.084 86.8584 156.967 94.7019 160.651L96.4025 157.031ZM77.2797 143.289C72.0038 137.452 67.9128 130.949 64.998 123.775L61.2922 125.28C64.3851 132.894 68.7281 139.793 74.3123 145.971L77.2797 143.289ZM65.0118 123.809C62.2107 116.527 60.8126 109.029 60.8126 101.305H56.8126C56.8126 109.525 58.3028 117.509 61.2784 125.245L65.0118 123.809ZM60.8126 101.305C60.8126 93.3633 62.3212 85.8297 65.3344 78.6871L61.649 77.1323C58.4234 84.778 56.8126 92.8414 56.8126 101.305H60.8126ZM65.3344 78.6871C68.359 71.5178 72.5561 65.1384 77.932 59.5386L75.0464 56.7684C69.3311 62.7219 64.8632 69.5134 61.649 77.1323L65.3344 78.6871ZM77.9314 59.5391C83.4076 53.8394 89.833 49.3678 97.2233 46.1205L95.6142 42.4584C87.754 45.9121 80.893 50.6832 75.047 56.7678L77.9314 59.5391ZM97.2131 46.1249C104.683 42.8917 112.844 41.2638 121.721 41.2638V37.2638C112.343 37.2638 103.636 38.9864 95.6243 42.454L97.2131 46.1249ZM121.721 41.2638C130.818 41.2638 139.014 43.003 146.345 46.4464L148.046 42.8258C140.126 39.1061 131.34 37.2638 121.721 37.2638V41.2638ZM146.368 46.4568C153.753 49.8135 160.055 54.3902 165.295 60.1878L168.262 57.5056C162.642 51.2878 155.889 46.3907 148.023 42.8154L146.368 46.4568ZM165.295 60.1878C170.561 66.0143 174.59 72.5621 177.389 79.8408L181.123 78.4048C178.146 70.6642 173.856 63.6945 168.262 57.5056L165.295 60.1878ZM177.403 79.8755C180.311 87.0345 181.762 94.4043 181.762 101.998H185.762C185.762 93.8799 184.208 85.9994 181.109 78.37L177.403 79.8755ZM181.762 101.998C181.762 109.821 180.255 117.297 177.24 124.443L180.926 125.998C184.15 118.356 185.762 110.351 185.762 101.998H181.762ZM177.23 124.468C174.324 131.621 170.133 138.051 164.643 143.764L167.528 146.536C173.36 140.465 177.834 133.608 180.936 125.973L177.23 124.468ZM164.643 143.765C159.281 149.35 152.907 153.827 145.501 157.193L147.157 160.835C155.002 157.269 161.799 152.503 167.528 146.535L164.643 143.765ZM145.525 157.183C138.179 160.41 130.024 162.04 121.027 162.04V166.04C130.516 166.04 139.228 164.319 147.134 160.845L145.525 157.183ZM91.126 101.652C91.126 105.999 91.7302 110.233 92.9403 114.347L96.7777 113.218C95.6772 109.477 95.126 105.623 95.126 101.652H91.126ZM92.945 114.363C94.1651 118.389 96.0001 122.063 98.4509 125.371L101.665 122.99C99.4946 120.06 97.8636 116.802 96.7731 113.203L92.945 114.363ZM98.4728 125.4C100.963 128.638 104.074 131.247 107.782 133.224L109.664 129.695C106.44 127.975 103.774 125.731 101.643 122.961L98.4728 125.4ZM107.852 133.26C111.758 135.15 116.285 136.059 121.374 136.059V132.059C116.758 132.059 112.851 131.235 109.594 129.659L107.852 133.26ZM121.374 136.059C126.481 136.059 131.025 135.085 134.942 133.063L133.108 129.509C129.862 131.184 125.972 132.059 121.374 132.059V136.059ZM134.942 133.063C138.793 131.076 141.934 128.383 144.325 124.985L141.054 122.683C139.055 125.524 136.419 127.8 133.108 129.509L134.942 133.063ZM144.317 124.997C146.765 121.57 148.543 117.831 149.645 113.789L145.786 112.737C144.809 116.32 143.236 119.628 141.062 122.672L144.317 124.997ZM149.634 113.827C150.843 109.718 151.449 105.542 151.449 101.305H147.449C147.449 105.155 146.899 108.951 145.797 112.699L149.634 113.827ZM151.449 101.305C151.449 96.9582 150.844 92.7763 149.63 88.7675L145.801 89.9275C146.897 93.5439 147.449 97.3338 147.449 101.305H151.449ZM149.63 88.7675C148.408 84.7356 146.567 81.1084 144.102 77.9034L140.931 80.3422C143.087 83.1449 144.713 86.3342 145.801 89.9275L149.63 88.7675ZM144.124 77.9323C141.616 74.5465 138.414 71.914 134.549 70.0439L132.807 73.6445C136.105 75.2403 138.796 77.4603 140.909 80.3132L144.124 77.9323ZM134.549 70.0439C130.649 68.1567 126.182 67.2447 121.201 67.2447V71.2447C125.693 71.2447 129.544 72.0657 132.807 73.6445L134.549 70.0439ZM121.201 67.2447C116.094 67.2447 111.55 68.2184 107.632 70.2403L109.467 73.7947C112.713 72.1195 116.603 71.2447 121.201 71.2447V67.2447ZM107.609 70.2528C103.884 72.2392 100.767 74.9182 98.2776 78.2789L101.492 80.6599C103.624 77.7818 106.283 75.4928 109.491 73.7822L107.609 70.2528ZM98.2995 78.25C95.8264 81.465 93.9864 85.157 92.767 89.3031L96.6044 90.4317C97.6957 86.7215 99.3217 83.4816 101.47 80.6888L98.2995 78.25ZM92.7562 89.3412C91.6685 93.3292 91.126 97.4345 91.126 101.652H95.126C95.126 97.7817 95.6233 94.0308 96.6152 90.3936L92.7562 89.3412Z" fill="white"/>
<path d="M112.994 163H80.0671V111.703C80.0671 107.197 79.0273 103.962 76.9477 101.998C74.9836 99.9188 72.673 98.879 70.0157 98.879C68.1672 98.879 66.2031 99.4567 64.1235 100.612C62.0439 101.652 60.1376 103.154 58.4046 105.118C56.6716 107.082 55.2852 109.335 54.2454 111.876V163H21.3184V71.8442H50.9527V85.3616C53.1478 82.0111 55.9206 79.2383 59.2711 77.0432C62.6216 74.7325 66.4919 72.9995 70.8822 71.8442C75.2725 70.6889 80.0671 70.1112 85.2661 70.1112C91.5049 70.1112 96.4728 71.2088 100.17 73.4039C103.867 75.599 106.64 78.4296 108.488 81.8956C110.337 85.3616 111.55 89.0009 112.128 92.8135C112.705 96.5106 112.994 99.9188 112.994 103.038V163Z" fill="#5A49E3"/>
<path d="M112.994 163V165H114.994V163H112.994ZM80.0671 163H78.0671V165H80.0671V163ZM76.9477 101.998L75.4937 103.372L75.5329 103.413L75.5745 103.452L76.9477 101.998ZM64.1235 100.612L65.0179 102.401L65.0568 102.381L65.0948 102.36L64.1235 100.612ZM58.4046 105.118L59.9043 106.441L59.9043 106.441L58.4046 105.118ZM54.2454 111.876L52.3943 111.119L52.2454 111.483V111.876H54.2454ZM54.2454 163V165H56.2454V163H54.2454ZM21.3184 163H19.3184V165H21.3184V163ZM21.3184 71.8442V69.8442H19.3184V71.8442H21.3184ZM50.9527 71.8442H52.9527V69.8442H50.9527V71.8442ZM50.9527 85.3616H48.9527V92.0637L52.6256 86.4576L50.9527 85.3616ZM59.2711 77.0432L60.3672 78.7161L60.387 78.7031L60.4066 78.6896L59.2711 77.0432ZM70.8822 71.8442L71.3912 73.7783L71.3912 73.7783L70.8822 71.8442ZM108.488 81.8956L106.724 82.8368L106.724 82.8368L108.488 81.8956ZM112.128 92.8135L110.15 93.1131L110.152 93.1222L112.128 92.8135ZM112.994 161H80.0671V165H112.994V161ZM82.0671 163V111.703H78.0671V163H82.0671ZM82.0671 111.703C82.0671 106.956 80.9804 103.056 78.321 100.544L75.5745 103.452C77.0742 104.869 78.0671 107.438 78.0671 111.703H82.0671ZM78.4017 100.625C76.0921 98.1796 73.2685 96.879 70.0157 96.879V100.879C72.0775 100.879 73.8752 101.658 75.4937 103.372L78.4017 100.625ZM70.0157 96.879C67.7434 96.879 65.4458 97.5895 63.1522 98.8637L65.0948 102.36C66.9604 101.324 68.591 100.879 70.0157 100.879V96.879ZM63.2291 98.8231C60.8924 99.9915 58.7865 101.662 56.9049 103.795L59.9043 106.441C61.4887 104.645 63.1954 103.312 65.0179 102.401L63.2291 98.8231ZM56.9049 103.795C55.0169 105.934 53.5146 108.381 52.3943 111.119L56.0965 112.634C57.0558 110.289 58.3263 108.229 59.9043 106.441L56.9049 103.795ZM52.2454 111.876V163H56.2454V111.876H52.2454ZM54.2454 161H21.3184V165H54.2454V161ZM23.3184 163V71.8442H19.3184V163H23.3184ZM21.3184 73.8442H50.9527V69.8442H21.3184V73.8442ZM48.9527 71.8442V85.3616H52.9527V71.8442H48.9527ZM52.6256 86.4576C54.6701 83.3371 57.2466 80.7606 60.3672 78.7161L58.1751 75.3703C54.5947 77.716 51.6255 80.6852 49.2798 84.2655L52.6256 86.4576ZM60.4066 78.6896C63.5457 76.5247 67.1992 74.8815 71.3912 73.7783L70.3732 69.91C65.7847 71.1175 61.6974 72.9404 58.1356 75.3968L60.4066 78.6896ZM71.3912 73.7783C75.5933 72.6725 80.2145 72.1112 85.2661 72.1112V68.1112C79.9197 68.1112 74.9516 68.7052 70.3732 69.91L71.3912 73.7783ZM85.2661 72.1112C91.2979 72.1112 95.8697 73.1766 99.1488 75.1236L101.191 71.6842C97.076 69.2409 91.7119 68.1112 85.2661 68.1112V72.1112ZM99.1488 75.1236C102.562 77.1503 105.063 79.7235 106.724 82.8368L110.253 80.9544C108.216 77.1357 105.172 74.0477 101.191 71.6842L99.1488 75.1236ZM106.724 82.8368C108.467 86.1063 109.607 89.5291 110.15 93.1131L114.105 92.5139C113.493 88.4727 112.206 84.6169 110.253 80.9544L106.724 82.8368ZM110.152 93.1222C110.716 96.7366 110.994 100.04 110.994 103.038H114.994C114.994 99.7974 114.694 96.2845 114.104 92.5047L110.152 93.1222ZM110.994 103.038V163H114.994V103.038H110.994Z" fill="white"/>
</svg>
