<svg width="220" height="220" viewBox="0 0 220 220" fill="none" xmlns="http://www.w3.org/2000/svg">
<rect width="220" height="220" fill="#EFEFEF"/>
<path d="M103.994 171H71.0671V119.703C71.0671 115.197 70.0273 111.962 67.9477 109.998C65.9836 107.919 63.673 106.879 61.0157 106.879C59.1672 106.879 57.2031 107.457 55.1235 108.612C53.0439 109.652 51.1376 111.154 49.4046 113.118C47.6716 115.082 46.2852 117.335 45.2454 119.876V171H12.3184V79.8442H41.9527V93.3616C44.1478 90.0111 46.9206 87.2383 50.2711 85.0432C53.6216 82.7325 57.4919 80.9995 61.8822 79.8442C66.2725 78.6889 71.0671 78.1112 76.2661 78.1112C82.5049 78.1112 87.4728 79.2088 91.1699 81.4039C94.867 83.599 97.6398 86.4296 99.4883 89.8956C101.337 93.3616 102.55 97.0009 103.128 100.813C103.705 104.511 103.994 107.919 103.994 111.038V171ZM207.041 77.418H171.688V171H137.895V77.418H102.368V47.957H207.041V77.418Z" fill="#5A49E3"/>
</svg>
