<svg width="750" height="129" viewBox="0 0 750 129" fill="none" xmlns="http://www.w3.org/2000/svg">
<path d="M91.9941 127H59.0671V75.7032C59.0671 71.1974 58.0273 67.9625 55.9477 65.9984C53.9836 63.9188 51.673 62.879 49.0157 62.879C47.1672 62.879 45.2031 63.4567 43.1235 64.612C41.0439 65.6518 39.1376 67.1537 37.4046 69.1178C35.6716 71.0819 34.2852 73.3348 33.2454 75.8765V127H0.3184V35.8442H29.9527V49.3616C32.1478 46.0111 34.9206 43.2383 38.2711 41.0432C41.6216 38.7325 45.4919 36.9995 49.8822 35.8442C54.2725 34.6889 59.0671 34.1112 64.2661 34.1112C70.5049 34.1112 75.4728 35.2088 79.1699 37.4039C82.867 39.599 85.6398 42.4296 87.4883 45.8956C89.3368 49.3616 90.5499 53.0009 91.1276 56.8135C91.7053 60.5106 91.9941 63.9188 91.9941 67.0382V127ZM152.839 128.733C144.867 128.733 137.762 127.52 131.523 125.094C125.284 122.552 120.027 119.144 115.752 114.869C111.593 110.594 108.416 105.684 106.221 100.138C104.026 94.5929 102.928 88.7585 102.928 82.6352C102.928 73.8547 104.835 65.8251 108.647 58.5465C112.46 51.1524 118.063 45.2602 125.457 40.8699C132.851 36.3641 141.979 34.1112 152.839 34.1112C163.699 34.1112 172.826 36.3063 180.22 40.6966C187.614 45.0869 193.218 50.8635 197.03 58.0266C200.843 65.1897 202.749 72.9882 202.749 81.4221C202.749 83.1551 202.634 84.9459 202.402 86.7944C202.287 88.5274 202.114 90.0871 201.883 91.4735H137.935C138.166 94.7084 139.032 97.3657 140.534 99.4453C142.152 101.409 144.116 102.854 146.427 103.778C148.853 104.702 151.337 105.164 153.878 105.164C157.46 105.164 160.81 104.355 163.93 102.738C167.165 101.121 169.302 98.8676 170.342 95.9793L198.243 103.951C195.817 108.803 192.409 113.078 188.019 116.775C183.744 120.472 178.66 123.418 172.768 125.614C166.876 127.693 160.233 128.733 152.839 128.733ZM137.242 71.7173H167.396C167.049 68.7134 166.183 66.1717 164.796 64.0921C163.525 62.0125 161.792 60.395 159.597 59.2397C157.518 58.0844 155.092 57.5067 152.319 57.5067C149.546 57.5067 147.062 58.0844 144.867 59.2397C142.787 60.395 141.054 62.0125 139.668 64.0921C138.397 66.1717 137.588 68.7134 137.242 71.7173ZM322.46 35.8442H353.481L316.221 127H289.36L277.055 92.34L264.751 127H237.89L200.63 35.8442H231.651L253.313 96.1526L259.379 75.7032L242.742 35.8442H269.257L277.055 62.5324L284.854 35.8442H311.369L294.732 75.7032L300.798 96.1526L322.46 35.8442ZM456.514 33.418H421.161V127H387.368V33.418H351.841V3.95699H456.514V33.418ZM496.9 128.733C488.928 128.733 481.823 127.52 475.584 125.094C469.345 122.552 464.089 119.144 459.814 114.869C455.655 110.594 452.478 105.684 450.282 100.138C448.087 94.5929 446.99 88.7585 446.99 82.6352C446.99 73.8547 448.896 65.8251 452.709 58.5465C456.521 51.1524 462.125 45.2602 469.519 40.8699C476.913 36.3641 486.04 34.1112 496.9 34.1112C507.76 34.1112 516.887 36.3063 524.281 40.6966C531.676 45.0869 537.279 50.8635 541.092 58.0266C544.904 65.1897 546.81 72.9882 546.81 81.4221C546.81 83.1551 546.695 84.9459 546.464 86.7944C546.348 88.5274 546.175 90.0871 545.944 91.4735H481.996C482.227 94.7084 483.094 97.3657 484.596 99.4453C486.213 101.409 488.177 102.854 490.488 103.778C492.914 104.702 495.398 105.164 497.94 105.164C501.521 105.164 504.872 104.355 507.991 102.738C511.226 101.121 513.364 98.8676 514.403 95.9793L542.305 103.951C539.878 108.803 536.47 113.078 532.08 116.775C527.805 120.472 522.722 123.418 516.83 125.614C510.937 127.693 504.294 128.733 496.9 128.733ZM481.303 71.7173H511.457C511.111 68.7134 510.244 66.1717 508.858 64.0921C507.587 62.0125 505.854 60.395 503.659 59.2397C501.579 58.0844 499.153 57.5067 496.38 57.5067C493.607 57.5067 491.123 58.0844 488.928 59.2397C486.849 60.395 485.116 62.0125 483.729 64.0921C482.458 66.1717 481.65 68.7134 481.303 71.7173ZM602.678 128.733C594.591 128.733 587.428 127.462 581.189 124.92C575.066 122.379 569.867 118.913 565.592 114.522C561.317 110.017 558.082 104.933 555.887 99.272C553.692 93.6109 552.594 87.6609 552.594 81.4221C552.594 73.1037 554.501 65.363 558.313 58.1999C562.241 50.9213 567.903 45.0869 575.297 40.6966C582.806 36.3063 591.933 34.1112 602.678 34.1112C613.654 34.1112 622.896 36.4219 630.406 41.0432C637.916 45.6645 643.519 51.6145 647.216 58.8931L615.156 68.5979C613.654 66.4028 611.805 64.7275 609.61 63.5722C607.531 62.4169 605.162 61.8392 602.505 61.8392C599.501 61.8392 596.786 62.6479 594.36 64.2654C591.933 65.7673 589.969 67.9625 588.467 70.8508C587.081 73.7391 586.388 77.2629 586.388 81.4221C586.388 85.4658 587.081 88.9895 588.467 91.9934C589.969 94.8817 591.933 97.1346 594.36 98.7521C596.786 100.254 599.501 101.005 602.505 101.005C604.353 101.005 606.029 100.774 607.531 100.312C609.032 99.7341 610.419 98.9254 611.69 97.8856C613.076 96.8458 614.231 95.6327 615.156 94.2463L647.216 103.951C644.79 108.803 641.44 113.078 637.165 116.775C633.006 120.472 628.038 123.418 622.261 125.614C616.6 127.693 610.072 128.733 602.678 128.733ZM749.316 127H716.389V75.7032C716.389 71.1974 715.349 67.9625 713.269 65.9984C711.305 63.9188 708.821 62.879 705.817 62.879C704.431 62.879 702.698 63.3989 700.618 64.4387C698.654 65.4785 696.748 66.9804 694.899 68.9445C693.051 70.9086 691.607 73.2192 690.567 75.8765V127H657.64V0.490994H690.567V49.3616C693.802 44.3937 698.019 40.6388 703.218 38.0971C708.532 35.4398 714.367 34.1112 720.721 34.1112C727.191 34.1112 732.332 35.2088 736.145 37.4039C739.957 39.4835 742.788 42.1985 744.637 45.549C746.485 48.8995 747.698 52.481 748.276 56.2936C748.969 60.1062 749.316 63.6877 749.316 67.0382V127Z" fill="#5A49E3"/>
</svg>
