<svg width="691" height="126" viewBox="0 0 691 126" fill="none" xmlns="http://www.w3.org/2000/svg">
<path d="M91.9941 124H59.0671V72.7032C59.0671 68.1974 58.0273 64.9625 55.9477 62.9984C53.9836 60.9188 51.673 59.879 49.0157 59.879C47.1672 59.879 45.2031 60.4567 43.1235 61.612C41.0439 62.6518 39.1376 64.1537 37.4046 66.1178C35.6716 68.0819 34.2852 70.3348 33.2454 72.8765V124H0.3184V32.8442H29.9527V46.3616C32.1478 43.0111 34.9206 40.2383 38.2711 38.0432C41.6216 35.7325 45.4919 33.9995 49.8822 32.8442C54.2725 31.6889 59.0671 31.1112 64.2661 31.1112C70.5049 31.1112 75.4728 32.2088 79.1699 34.4039C82.867 36.599 85.6398 39.4296 87.4883 42.8956C89.3368 46.3616 90.5499 50.0009 91.1276 53.8135C91.7053 57.5106 91.9941 60.9188 91.9941 64.0382V124ZM164.817 125.04C155.458 125.04 146.967 123.307 139.342 119.841C131.716 116.259 125.131 111.522 119.585 105.63C114.155 99.6225 109.938 92.9215 106.934 85.5274C104.046 78.0177 102.602 70.277 102.602 62.3052C102.602 54.1023 104.162 46.3038 107.281 38.9097C110.4 31.5156 114.733 24.9302 120.279 19.1535C125.94 13.2613 132.583 8.63996 140.208 5.28949C147.949 1.93902 156.383 0.26379 165.51 0.26379C174.868 0.26379 183.36 2.05456 190.985 5.63609C198.61 9.10209 205.138 13.839 210.568 19.8467C215.998 25.8544 220.157 32.6131 223.045 40.1228C226.049 47.5169 227.551 55.1421 227.551 62.9984C227.551 71.0857 225.992 78.8265 222.872 86.2206C219.868 93.6147 215.536 100.258 209.875 106.15C204.329 111.927 197.744 116.548 190.118 120.014C182.493 123.365 174.059 125.04 164.817 125.04ZM136.915 62.6518C136.915 66.811 137.493 70.8547 138.648 74.7828C139.804 78.5954 141.537 82.0614 143.847 85.1808C146.158 88.1847 149.046 90.6109 152.512 92.4594C156.094 94.1924 160.311 95.0589 165.163 95.0589C170.016 95.0589 174.233 94.1346 177.814 92.2861C181.396 90.4376 184.284 87.9536 186.479 84.8342C188.79 81.5993 190.465 78.0755 191.505 74.2629C192.66 70.3348 193.238 66.3489 193.238 62.3052C193.238 58.146 192.66 54.1601 191.505 50.3475C190.35 46.5349 188.617 43.1267 186.306 40.1228C183.995 37.0034 181.049 34.5772 177.468 32.8442C173.886 31.1112 169.727 30.2447 164.99 30.2447C160.138 30.2447 155.921 31.169 152.339 33.0175C148.873 34.866 145.985 37.35 143.674 40.4694C141.363 43.4733 139.63 46.9393 138.475 50.8674C137.435 54.68 136.915 58.6081 136.915 62.6518ZM235.116 61.4387C235.116 53.929 236.502 46.5927 239.275 39.4296C242.163 32.151 246.322 25.5656 251.752 19.6734C257.182 13.7812 263.768 9.10209 271.509 5.63609C279.365 2.05456 288.203 0.26379 298.023 0.26379C309.808 0.26379 320.09 2.74776 328.871 7.7157C337.651 12.5681 344.179 19.038 348.454 27.1253L322.632 45.4951C321.13 41.4514 318.935 38.332 316.047 36.1369C313.274 33.9418 310.212 32.4398 306.862 31.6311C303.627 30.7068 300.45 30.2447 297.33 30.2447C292.478 30.2447 288.261 31.2267 284.679 33.1908C281.213 35.0393 278.325 37.5233 276.014 40.6427C273.819 43.7621 272.144 47.2281 270.989 51.0407C269.949 54.8533 269.429 58.6659 269.429 62.4785C269.429 66.7532 270.064 70.8547 271.335 74.7828C272.606 78.7109 274.455 82.2347 276.881 85.3541C279.307 88.358 282.253 90.7264 285.719 92.4594C289.301 94.1924 293.287 95.0589 297.677 95.0589C300.796 95.0589 303.973 94.5968 307.208 93.6725C310.443 92.6327 313.389 91.0152 316.047 88.8201C318.704 86.625 320.726 83.6789 322.112 79.9818L349.667 96.4453C347.241 102.453 343.197 107.594 337.536 111.869C331.875 116.144 325.463 119.436 318.3 121.747C311.136 123.942 304.031 125.04 296.984 125.04C287.857 125.04 279.48 123.249 271.855 119.667C264.345 115.97 257.818 111.118 252.272 105.11C246.842 98.987 242.625 92.1706 239.621 84.6609C236.617 77.0357 235.116 69.295 235.116 61.4387ZM449.385 94.539V124H361.695V0.956991H447.825V30.418H395.488V47.748H440.2V75.1294H395.488V94.539H449.385ZM493.521 0.956991H531.3L570.466 124H536.153L528.701 99.9113H495.947L488.668 124H454.182L493.521 0.956991ZM523.328 77.3823L512.41 34.0573L500.973 77.3823H523.328ZM614.483 63.5183V124H580.689V0.956991H607.031L656.421 63.5183V0.956991H690.215V124H663.353L614.483 63.5183Z" fill="#5A49E3"/>
</svg>
