<svg width="1792" height="1792" viewBox="0 0 1792 1792" fill="none" xmlns="http://www.w3.org/2000/svg">
<path d="M1671 566C1671 592.667 1661.67 615.333 1643 634L919 1358L783 1494C764.333 1512.67 741.667 1522 715 1522C688.333 1522 665.667 1512.67 647 1494L511 1358L149 996C130.333 977.333 121 954.667 121 928C121 901.333 130.333 878.667 149 860L285 724C303.667 705.333 326.333 696 353 696C379.667 696 402.333 705.333 421 724L715 1019L1371 362C1389.67 343.333 1412.33 334 1439 334C1465.67 334 1488.33 343.333 1507 362L1643 498C1661.67 516.667 1671 539.333 1671 566Z" fill="white"/>
</svg>
